<svg xmlns="http://www.w3.org/2000/svg" viewBox="0 0 32 32"><path d="M24.51 16.14c0 3-1.66 5.61-4.1 6.99l-1.21 2.35c-.25.5-.77.81-1.33.81h-2.71c-.56 0-1.07-.31-1.33-.8l-1.27-2.38v-.01a8.005 8.005 0 01-4.03-6.46H8v.5c0 .28-.22.5-.5.5s-.5-.22-.5-.5v-2c0-.28.22-.5.5-.5s.5.22.5.5v.5h.52a8.002 8.002 0 014.03-6.45c.01-.01.01-.01.01-.02l1.28-2.37c.26-.49.76-.8 1.32-.8h2.71c.56 0 1.07.31 1.33.81l1.2 2.34c.64.35 1.24.8 1.77 1.33a7.949 7.949 0 012.34 5.66zm-9.8-8.88l-.68 1.28c.78-.26 1.61-.4 2.47-.4.84 0 1.66.13 2.44.38l-.64-1.25a.477.477 0 00-.44-.27h-2.71c-.18 0-.35.1-.44.26zm3.59 17.75l.66-1.26c-.77.25-1.59.39-2.44.39h-.02c-.86 0-1.69-.14-2.46-.39l.67 1.26c.09.17.25.27.44.27h2.71c.18 0 .35-.1.44-.27zm-1.81-1.86v.01h.01c3.87-.01 7.01-3.15 7.01-7.01 0-1.87-.73-3.63-2.05-4.95a6.96 6.96 0 00-4.95-2.05c-3.87 0-7.01 3.14-7.01 7s3.14 7 6.99 7zm.02-13.27a6.27 6.27 0 016.26 6.26 6.27 6.27 0 01-6.26 6.26 6.27 6.27 0 01-6.26-6.26 6.27 6.27 0 016.26-6.26zm0 1c-2.77 0-5.02 2.16-5.22 4.88h2.06l.67-1.28c.09-.17.25-.28.47-.27.19 0 .36.11.44.28l1.3 2.62 1.45-3.31a.491.491 0 01.9-.01l.91 1.97h2.24c-.2-2.72-2.45-4.88-5.22-4.88zm0 10.52c2.68 0 4.88-2.03 5.2-4.63l-2.54-.01c-.19 0-.37-.11-.45-.29l-.58-1.25-1.43 3.27c-.08.18-.26.3-.45.3h-.01c-.19 0-.36-.11-.45-.28l-1.34-2.7-.35.68c-.08.17-.25.27-.44.27h-2.35c.31 2.61 2.5 4.64 5.19 4.64z"/></svg>