<svg xmlns="http://www.w3.org/2000/svg" viewBox="0 0 32 32"><path d="M18.65 9.35L16.5 7.21v2.58l2.85 2.85c.2.2.2.52 0 .71a.47.47 0 01-.35.15.5.5 0 01-.35-.14l-2.15-2.15v2.58l2.85 2.85c.2.2.2.52 0 .71a.47.47 0 01-.35.15.47.47 0 01-.35-.15L16.5 15.2v2.59l2.85 2.85c.2.2.2.52 0 .71a.47.47 0 01-.35.15.5.5 0 01-.35-.14l-2.15-2.15V26c0 .28-.22.5-.5.5s-.5-.22-.5-.5v-6.8l-2.15 2.15a.47.47 0 01-.35.15.47.47 0 01-.35-.15.513.513 0 010-.71l2.85-2.85V15.2l-2.15 2.15a.47.47 0 01-.35.15.5.5 0 01-.35-.14.513.513 0 010-.71l2.85-2.85v-2.59l-2.15 2.14a.47.47 0 01-.35.15.5.5 0 01-.35-.14.513.513 0 010-.71L15.5 9.8V7.21l-2.15 2.14a.47.47 0 01-.35.15.5.5 0 01-.35-.14.513.513 0 010-.71l3-3.01c.04-.05.1-.08.16-.11a.5.5 0 01.38 0c.06.03.11.06.16.11l3 3c.2.2.2.52 0 .71a.47.47 0 01-.35.15.47.47 0 01-.35-.15zm-8 2L9.5 10.21v1.58l1.85 1.85c.2.2.2.52 0 .71a.47.47 0 01-.35.15.5.5 0 01-.35-.14L9.5 13.21v1.58l1.85 1.85c.2.2.2.52 0 .71a.47.47 0 01-.35.15.5.5 0 01-.35-.14L9.5 16.21V23c0 .28-.22.5-.5.5s-.5-.22-.5-.5v-6.79l-1.15 1.14a.47.47 0 01-.35.15.5.5 0 01-.35-.14.513.513 0 010-.71L8.5 14.8v-1.59l-1.15 1.14a.47.47 0 01-.35.15.5.5 0 01-.35-.14.513.513 0 010-.71L8.5 11.8v-1.59l-1.15 1.14a.47.47 0 01-.35.15.5.5 0 01-.35-.14.513.513 0 010-.71l2-2c.04-.05.1-.09.16-.11a.5.5 0 01.38 0c.06.02.12.06.16.11l2 1.99c.2.2.2.52 0 .71a.47.47 0 01-.35.15.47.47 0 01-.35-.15zm14 3l-1.15-1.14v1.58l1.85 1.85c.2.2.2.52 0 .71a.47.47 0 01-.35.15.5.5 0 01-.35-.14l-1.15-1.15V23c0 .28-.22.5-.5.5s-.5-.22-.5-.5v-6.8l-1.15 1.15a.47.47 0 01-.35.15.5.5 0 01-.35-.14.513.513 0 010-.71l1.85-1.85v-1.59l-1.15 1.14a.47.47 0 01-.35.15.5.5 0 01-.35-.14.513.513 0 010-.71l1.85-1.85v-1.59l-1.15 1.14a.47.47 0 01-.35.15.47.47 0 01-.35-.15.513.513 0 010-.71l2-2c.04-.05.1-.08.16-.11a.5.5 0 01.38 0c.06.03.11.06.16.11l2 2c.2.2.2.52 0 .71a.47.47 0 01-.35.15.5.5 0 01-.35-.14l-1.15-1.15v1.58l1.85 1.85c.2.2.2.52 0 .71a.47.47 0 01-.35.15.47.47 0 01-.35-.15z"/></svg>