<svg xmlns="http://www.w3.org/2000/svg" viewBox="0 0 32 32"><path d="M21 27l.15-.006-.062.004L21 27zm-2.887-11.162l-.123.017c.006.047.01.096.01.145v1a1 1 0 01-1 1h-2a1 1 0 01-1-1v-1c0-.05.004-.098.01-.145-1.692-.249-3.118-.81-4.01-1.551V25a1 1 0 001 1h10a1 1 0 001-1l.001-10.697c-.87.723-2.249 1.276-3.888 1.535zM9 19H7v1c0 2.716.965 4.95 2.13 5.716v.001l.04.092.016.035-.032-.073v-.001l-.054-.144A1.998 1.998 0 019 25v-6zm16 0h-2v6c0 .251-.046.491-.13.713l-.002.003c1.127-.739 2.065-2.847 2.129-5.435L25 20v-1zm-5 0a1 1 0 011 1v4a1 1 0 01-1 1h-8a1 1 0 01-1-1v-4a1 1 0 011-1h8zm0 3h-8v2h8v-2zm0-2h-8v1h8v-1zm-3-4h-2v1h2v-1zm4-6H11a1 1 0 00-1 1v1.5c0 1.192 2.615 2.5 6 2.5 3.29 0 5.854-1.236 5.994-2.4l.006-.1V11a1 1 0 00-1-1zM11 6H9.5a.5.5 0 00-.5.5v2a.5.5 0 00.5.5H11V6zm2 0h-1v3h1V6zm7 0h-1v3h1V6zm-2 0h-4v3h4V6zm4.5 0H21v3h1.5a.5.5 0 00.5-.5v-2a.5.5 0 00-.5-.5zM22 27H10l-.153-.005C7.709 26.854 6 23.776 6 20v-1a1 1 0 011-1h2v-7c0-.372.101-.72.278-1.018A1.497 1.497 0 018 8.5v-2A1.5 1.5 0 019.5 5h13A1.5 1.5 0 0124 6.5v2a1.5 1.5 0 01-1.28 1.484c.179.296.28.644.28 1.016v7h2a1 1 0 01.993.883L26 19v1c0 3.684-1.626 6.703-3.69 6.98l-.157.015L22 27z"/></svg>