<svg xmlns="http://www.w3.org/2000/svg" viewBox="0 0 32 32"><path d="M26.59 7.008l.41.076V12h-3v1h1.835l.128.31 1.231 3.003c.206.594.306 1.333.306 2.22 0 .792-.08 1.929-.24 3.416l-.006.05.246.001a.5.5 0 01.09.992L27.5 23H25a2 2 0 01-3.995.15L21 23h-9a2 2 0 01-3.995.15L8 23H4.5a.5.5 0 110-1l.004-.216c.108-2.988 2.493-4.574 6.933-4.767l.32-.012L15.006 13H16v-1h-3v-1.185l.12-.14c.386-.452.69-.781.913-.993 1.683-1.59 2.885-2.264 4.864-2.68 2.26-.473 4.675-.552 7.694.006zM23 22a1 1 0 100 2 1 1 0 000-2zm-13 0a1 1 0 100 2 1 1 0 000-2zm9-4h-6.991c-4.32.074-6.406 1.35-6.505 3.813L5.5 22l2.769-.002a2 2 0 013.462 0L19 21.997V18zm7.486 0L20 17.999v3.998h1.269a2 2 0 013.462 0h1.518c.168-1.53.251-2.687.251-3.464 0-.186-.005-.364-.014-.533zM17.5 19a.5.5 0 110 1h-1a.5.5 0 110-1h1zm-2.018-5l-2.433 3L19 16.999V14h-3.518zM23 12h-6v1h6v-1zm-3.897-4.02c-1.788.375-2.828.959-4.383 2.428-.14.132-.326.33-.558.591H26V7.92c-2.692-.454-4.862-.366-6.897.061zM24.5 9a.5.5 0 110 1h-6a.5.5 0 110-1h6zM20 16.999h6.353a3.704 3.704 0 00-.039-.155l-.055-.178L25.165 14H20v2.999z"/></svg>