<svg xmlns="http://www.w3.org/2000/svg" viewBox="0 0 32 32"><path d="M6.5 12c.83 0 1.5.67 1.5 1.5 0 .64-.76 1.81-1.09 2.28a.49.49 0 01-.82 0C5.76 15.31 5 14.14 5 13.5c0-.83.67-1.5 1.5-1.5zm0 2.57c.29-.48.5-.92.5-1.07 0-.27-.22-.5-.5-.5s-.5.22-.5.5c0 .15.21.59.5 1.07zm18.41 1.65c.33.47 1.09 1.64 1.09 2.28 0 .83-.67 1.5-1.5 1.5s-1.5-.67-1.5-1.5c0-.64.76-1.81 1.09-2.28.18-.27.63-.27.82 0zM24.5 19c.28 0 .5-.22.5-.5 0-.15-.21-.58-.5-1.07-.29.48-.5.92-.5 1.07 0 .28.22.5.5.5zm-5-11.02c.28 0 .5.23.5.5v4c0 .28-.22.5-.5.5s-.5-.22-.5-.5v-4c0-.28.22-.5.5-.5zM21 6c.83 0 1.5.67 1.5 1.5v5.62c0 .35-.12.69-.33.96l-1.5 1.81c-.18.21-.41.36-.66.45v9.65c.28 0 .5.22.5.5s-.22.5-.5.5h-1c-.28 0-.5-.22-.5-.5s.22-.5.5-.5v-9.65c-.26-.09-.48-.24-.66-.45l-1.5-1.81c-.23-.27-.35-.61-.35-.96V7.5c0-.83.67-1.5 1.5-1.5h3zm.5 7.12V7.5c0-.27-.22-.5-.5-.5h-3c-.28 0-.5.22-.5.5v5.62c0 .12.04.23.13.32l1.5 1.81c.13.16.3.18.38.18.08 0 .25-.02.38-.18l1.5-1.81c.07-.09.11-.2.11-.32zM11.5 20c.28 0 .5.22.5.5v4c0 .28-.22.5-.5.5s-.5-.22-.5-.5v-4c0-.28.22-.5.5-.5zm1.15-2.91l1.51 1.81c.22.27.34.61.34.96v5.62c0 .83-.67 1.5-1.5 1.5h-3c-.83 0-1.5-.67-1.5-1.5v-5.62c0-.35.12-.69.35-.96l1.5-1.81c.17-.21.4-.35.65-.43V7c-.28 0-.5-.22-.5-.5s.22-.5.5-.5h1c.28 0 .5.22.5.5s-.22.5-.5.5v9.66c.25.08.48.22.65.43zm.85 8.39v-5.62c0-.12-.04-.23-.11-.32l-1.5-1.81a.5.5 0 00-.77 0l-1.5 1.81c-.08.09-.12.2-.12.32v5.62c0 .28.22.5.5.5h3c.28 0 .5-.22.5-.5z"/></svg>