<svg xmlns="http://www.w3.org/2000/svg" viewBox="0 0 32 32"><path d="M23.34 15.14c-.67-.43-1.33-1.09-1.47-3.85-.04-.87-.8-1.55-1.72-1.55h-.72V7.87c0-.11-.01-.22-.03-.33V7.5c-.15-.86-.81-1.5-1.61-1.5h-4.58c-.8 0-1.46.65-1.61 1.52v.01c-.02.11-.03.22-.03.34v1.86h-.72c-.92 0-1.68.68-1.72 1.55-.14 2.77-.8 3.42-1.47 3.85-.41.27-.66.76-.66 1.31v8.39c0 .91.78 1.64 1.73 1.64h13.54c.95 0 1.73-.74 1.73-1.64v-8.39c0-.54-.25-1.03-.66-1.3zm-1.02 6.84l-2.5-2.5H23v2.5h-.68zM8 21.98v-2.5h3.18l-2.5 2.5H8zm0-5.53c0-.08.02-.34.2-.47h6.3v2.5H8v-2.03zm14.8-.47c.19.13.2.39.2.47v2.03h-7.5v-.75h.5c.28 0 .5-.22.5-.5s-.22-.5-.5-.5h-.5v-.75h7.3zM12.47 19.6c.04-.04.06-.08.08-.12h1.95v2.5h-4.41l2.38-2.38zm3.03 1.63h.5c.28 0 .5-.22.5-.5s-.22-.5-.5-.5h-.5v-.75h2.95c.02.04.05.09.08.12l2.38 2.38H15.5v-.75zm5.37-9.9c.09 1.83.41 2.92.9 3.65H15.5v-.75h.5c.28 0 .5-.22.5-.5s-.22-.5-.5-.5h-.5v-.75h2.28c.87 0 1.58-.78 1.63-1.75h.73c.39 0 .72.27.73.6zm-8.3-2.49c.2.08.41.14.64.14h1.29v2.5h-1.29c-.35 0-.64-.4-.64-.87V8.84zm2.93 1.89h.5c.28 0 .5-.22.5-.5s-.22-.5-.5-.5h-.5v-.75h2.28c.23 0 .44-.06.64-.14v1.77c0 .47-.29.87-.64.87H15.5v-.75zM13.21 7h4.57c.28 0 .52.26.6.61-.08.22-.32.37-.59.37h-4.58c-.25 0-.47-.13-.6-.4.1-.33.33-.58.6-.58zm-3.08 4.33c.01-.33.34-.6.72-.6h.73c.06.97.76 1.75 1.63 1.75h1.29v2.5H9.23c.49-.73.81-1.82.9-3.65zM8 24.84v-1.86h6.5v2.5H8.73c-.4 0-.73-.29-.73-.64zm14.27.64H15.5v-.75h.5c.28 0 .5-.22.5-.5s-.22-.5-.5-.5h-.5v-.75H23v1.86c0 .35-.33.64-.73.64z"/></svg>