<svg xmlns="http://www.w3.org/2000/svg" viewBox="0 0 32 32"><path d="M16.05 25.01c.02.01.06.06.09.09.13.15.37.44.82.44.45 0 .69-.28.82-.44.02-.02.05-.06.05-.08.02.02.05.06.07.08.13.15.37.44.82.44.45 0 .69-.28.82-.44.02-.03.05-.06.05-.08.02.02.05.05.07.08.13.15.37.44.82.44.45 0 .69-.28.82-.44.02-.02.05-.06.05-.08.02.02.05.05.07.08.13.15.37.44.82.44.45 0 .69-.28.82-.44.02-.03.06-.06.05-.08.02.02.05.06.08.08.13.15.37.44.82.44.33 0 .55-.15.71-.31.17-.08.29-.25.29-.45v-4.09c0-1.32-1.01-2.4-2.35-2.49-4.47-.33-7.98-1.89-8.13-3.59.3-.28.49-.68.49-1.15 0-.81-.65-1.46-1.45-1.46h-.26c.05-.16.09-.32.09-.5 0-.39-.15-.73-.39-1 .24-.27.39-.61.39-1s-.15-.73-.39-1c.24-.27.39-.61.39-1 0-.83-.67-1.5-1.5-1.5h-4c-.83 0-1.5.67-1.5 1.5 0 .39.15.73.39 1-.24.27-.39.61-.39 1s.15.73.39 1a1.469 1.469 0 00-.17 1.77c-.37.26-.62.69-.62 1.18v1.06l.01 8.23c0 .01-.01.02-.01.03 0 .01.01.03.01.04v1.81c.05.23.22.5.23.5.18.27.46.41.79.41.45 0 .69-.28.82-.44.02-.02.05-.06.05-.08.02.02.05.05.07.08.13.15.37.44.82.44.45 0 .69-.28.82-.44.02-.03.05-.06.05-.08.02.02.05.05.07.08.13.15.37.44.82.44.45 0 .69-.28.82-.44.02-.02.05-.06.05-.08.02.02.05.05.07.08.13.15.37.44.82.44.45 0 .69-.28.82-.44.03-.03.07-.08.06-.08h2.86zm-1.55-8.48l-1.04 1.05c-.19.2-.19.51 0 .71a.485.485 0 00.7 0l1.13-1.13c.27.18.57.35.9.52l-.92.92c-.19.2-.19.51 0 .71a.485.485 0 00.7 0l1.2-1.2c.32.12.66.24 1.02.34l-.83.83c-.19.2-.19.51 0 .71a.485.485 0 00.7 0l1.25-1.25c.99.22 2.08.39 3.25.47.81.06 1.43.7 1.43 1.5v1.58h-17v-7.27h6.56c.13.52.46 1.04.95 1.51zm-.5-2.99c0 .26-.2.46-.45.46H7v-.55c0-.25.2-.45.45-.45h6.1c.25 0 .45.21.45.54zM7.9 7h4c.28 0 .5.22.5.5s-.22.5-.5.5-.5.22-.5.5.22.5.5.5.5.22.5.5-.22.5-.5.5H9.88c-.28 0-.5.22-.5.5s.22.5.5.5h2.02c.28 0 .5.22.5.5s-.22.5-.5.5h-4c-.28 0-.5-.22-.5-.5s.23-.5.5-.5c.28 0 .5-.22.5-.5s-.22-.5-.5-.5-.5-.22-.5-.5.23-.5.5-.5h1.96c.28 0 .5-.22.5-.5s-.22-.5-.5-.5H7.9c-.28 0-.5-.22-.5-.5s.23-.5.5-.5zm5.28 17.01c-.45 0-.69.28-.82.44-.02.03-.05.06-.05.08a.572.572 0 01-.07-.08c-.13-.15-.37-.44-.82-.44-.45 0-.69.28-.82.44-.02.02-.05.06-.04.08a.572.572 0 01-.07-.08c-.13-.15-.37-.44-.82-.44-.45 0-.69.28-.82.44-.02.02-.05.06-.04.08a.572.572 0 01-.07-.08c-.13-.15-.37-.44-.82-.44-.45 0-.69.28-.82.44-.02.02-.04.05-.04.07-.02-.03-.03-.06-.04-.08v-1.17h17v1.25l-.06-.06c-.13-.15-.37-.44-.82-.44-.45 0-.69.28-.82.44-.02.03-.05.06-.05.08-.02-.02-.05-.06-.07-.08-.13-.15-.37-.44-.82-.44-.45 0-.69.28-.82.44-.02.03-.05.06-.05.08a.572.572 0 01-.07-.08c-.13-.15-.37-.44-.82-.44-.45 0-.69.28-.82.44-.02.03-.05.06-.05.08a.572.572 0 01-.07-.08c-.13-.15-.37-.44-.82-.44-.45 0-.69.28-.82.44-.02.03-.05.06-.05.08a.572.572 0 01-.07-.08c-.13-.15-.37-.44-.82-.44l-2.92-.01z"/></svg>