<svg xmlns="http://www.w3.org/2000/svg" viewBox="0 0 32 32"><path d="M22.485 17.297A5.505 5.505 0 0126 22.42a.5.5 0 01-.5.5h-5.99c.303.605.49 1.278.49 2a.5.5 0 01-.5.5h-8a.5.5 0 01-.5-.5c0-.722.187-1.395.49-2H5.5a.5.5 0 01-.5-.5 5.504 5.504 0 013.517-5.123 3.498 3.498 0 01-1.515-2.877c0-1.93 1.57-3.5 3.5-3.5s3.5 1.57 3.5 3.5a3.497 3.497 0 01-1.515 2.877c.293.115.573.253.84.414a2.493 2.493 0 012.174-1.29c.937 0 1.746.524 2.174 1.29.266-.161.547-.3.84-.414A3.498 3.498 0 0117 14.42c0-1.93 1.57-3.5 3.5-3.5s3.5 1.57 3.5 3.5a3.497 3.497 0 01-1.515 2.877zM18 14.42c0 1.379 1.122 2.5 2.5 2.5s2.5-1.122 2.5-2.5-1.122-2.5-2.5-2.5a2.503 2.503 0 00-2.5 2.5zm-3.864 3.884a1.48 1.48 0 00-.136.616c0 .789.613 1.43 1.386 1.489.038.002.075.011.114.011.827 0 1.5-.673 1.5-1.5 0-.22-.05-.427-.136-.616a1.498 1.498 0 00-1.364-.884 1.5 1.5 0 00-1.364.884zM8 14.42c0 1.379 1.122 2.5 2.5 2.5s2.5-1.122 2.5-2.5-1.122-2.5-2.5-2.5a2.503 2.503 0 00-2.5 2.5zm-1.972 7.5h6.142a4.498 4.498 0 011.644-1.166A2.485 2.485 0 0113 18.92c0-.072.015-.139.021-.21a4.455 4.455 0 00-2.521-.79 4.507 4.507 0 00-4.472 4zm6.008 2.5h6.928a3.463 3.463 0 00-.609-1.5 3.507 3.507 0 00-1.055-1 3.472 3.472 0 00-1.181-.443 3.501 3.501 0 00-.619-.057c-.14 0-.274.022-.41.038-.069.008-.141.007-.209.019a3.472 3.472 0 00-1.181.443c-.42.253-.774.599-1.055 1a3.463 3.463 0 00-.609 1.5zm6.794-2.5h6.142a4.506 4.506 0 00-4.472-4c-.937 0-1.8.298-2.521.79.006.071.021.138.021.21 0 .727-.317 1.377-.814 1.834a4.51 4.51 0 011.644 1.166zm-3.684-10.712l-1.727-1.727a1.459 1.459 0 01.016-2.061c.555-.554 1.515-.561 2.061-.015l.004.004.004-.003c.546-.547 1.507-.54 2.062.015a1.46 1.46 0 01.015 2.061l-1.727 1.727a.502.502 0 01-.708-.001zm-1.004-3.081a.458.458 0 00-.016.647l1.374 1.374 1.372-1.375a.458.458 0 00-.015-.647c-.177-.178-.479-.184-.647-.015l-.357.357a.5.5 0 01-.707 0l-.357-.357a.436.436 0 00-.31-.126.476.476 0 00-.337.142z"/></svg>