<svg xmlns="http://www.w3.org/2000/svg" viewBox="0 0 32 32"><path d="M23.56 11c.8 0 1.44.65 1.45 1.44v10.13c0 .8-.65 1.44-1.44 1.44H7.44c-.79 0-1.44-.65-1.44-1.44V12.44c0-.79.65-1.44 1.44-1.44H12V9.5c0-.83.67-1.5 1.5-1.5h4c.83 0 1.5.67 1.5 1.5V11h4.56zm-11.11 3.99l-.45.49V17h1v-1.51l-.52-.49c-.01 0-.02-.01-.03-.01zm-.45-.83V12h-2v11h11V12h-8v2.16c.05.03.11.05.15.1l.6.57c.16.15.25.35.25.56v1.79c0 .45-.4.82-.9.82h-1.2c-.5 0-.9-.37-.9-.82v-1.79c0-.21.09-.41.25-.57l.6-.57c.04-.04.1-.06.15-.09zM13.5 9c-.27 0-.5.22-.5.5V11h5V9.5c0-.27-.22-.5-.5-.5h-4zM7 22.56c0 .24.2.44.44.44H9V12H7.44c-.24 0-.44.2-.44.44v10.12zm17 0V12.44c0-.24-.2-.44-.44-.44H22v11h1.56c.24 0 .44-.2.44-.44zm-7.5-.31c-.28 0-.5-.22-.5-.5v-2c0-.28.22-.5.5-.5h3c.28 0 .5.22.5.5v2c0 .28-.22.5-.5.5h-3zm.5-2v1h2v-1h-2zM18.5 18c-.83 0-1.5-.67-1.5-1.5s.67-1.5 1.5-1.5 1.5.67 1.5 1.5-.67 1.5-1.5 1.5zm0-2c-.27 0-.5.22-.5.5s.22.5.5.5.5-.23.5-.5-.22-.5-.5-.5z"/></svg>