<svg xmlns="http://www.w3.org/2000/svg" viewBox="0 0 32 32"><path d="M9.5 11.981a2.487 2.487 0 01-2.484-2.485 2.486 2.486 0 014.156-1.837.5.5 0 01-.26.933H10.9a.907.907 0 00-.914.905c0 .5.406.906.906.906.202 0 .39.121.467.308a.494.494 0 01-.104.544 2.467 2.467 0 01-1.755.726zm0-3.969c-.818 0-1.484.666-1.484 1.484 0 .88.812 1.58 1.67 1.473a1.902 1.902 0 01-.002-2.946 1.595 1.595 0 00-.184-.01zm15.377 15.124a.5.5 0 01-.016.708l-.906.866a.496.496 0 01-.44.273h-16a.491.491 0 01-.41-.23l-.95-.909a.5.5 0 11.69-.723l.21.2c.47-5.247 4.076-9.344 8.446-9.354h.016c1.342.003 2.607.401 3.737 1.09l1.763-1.763v-1.586l-1.146 1.146a.502.502 0 01-.708 0 .5.5 0 010-.707l1.854-1.854V8.707L19.87 9.853a.502.502 0 01-.708 0 .5.5 0 010-.707l1.999-1.999a.496.496 0 01.708 0l1.999 2a.5.5 0 01-.708.706l-1.146-1.146v1.585l1.854 1.854a.5.5 0 01-.708.707l-1.146-1.146v1.585l1.854 1.854a.5.5 0 01-.708.707l-1.146-1.146v3.017c1.056 1.55 1.756 3.478 1.945 5.596l.21-.2a.5.5 0 01.707.016zm-8.861-3.287v4.132h3.434l-3.434-4.132zm-1 4.132h-.001V19.85l-3.434 4.132h3.435zm6-9.274l-.93.928c.327.258.637.54.93.85v-1.778zm-5.508.26C11.5 14.97 8.227 18.97 8.02 23.98h2.26l4.85-5.835c.01-.012.026-.018.037-.029.01-.01.017-.026.029-.036.015-.012.032-.015.047-.025a.51.51 0 01.179-.074.48.48 0 01.367.075c.015.01.033.013.047.025.012.01.018.025.029.036.01.011.026.017.036.03l4.85 5.834h2.245c-.207-5.01-3.481-9.01-7.488-9.015z"/></svg>